<svg xmlns="http://www.w3.org/2000/svg" viewBox="0 0 512 512" role="img" aria-label="Настройки">
  <defs>
    <linearGradient id="gearGold" x1="128" x2="384" y1="88" y2="424" gradientUnits="userSpaceOnUse">
      <stop offset="0" stop-color="#ffeeb5"/>
      <stop offset="0.46" stop-color="#e2b44f"/>
      <stop offset="1" stop-color="#9b6527"/>
    </linearGradient>
    <linearGradient id="gearFace" x1="164" x2="348" y1="142" y2="370" gradientUnits="userSpaceOnUse">
      <stop offset="0" stop-color="#2c3934"/>
      <stop offset="1" stop-color="#101817"/>
    </linearGradient>
    <radialGradient id="buttonGlow" cx="50%" cy="40%" r="62%">
      <stop offset="0" stop-color="#fff1bc" stop-opacity="0.34"/>
      <stop offset="0.62" stop-color="#d6a548" stop-opacity="0.1"/>
      <stop offset="1" stop-color="#050807" stop-opacity="0"/>
    </radialGradient>
    <filter id="softShadow" x="-22%" y="-22%" width="144%" height="144%">
      <feDropShadow dx="0" dy="10" stdDeviation="10" flood-color="#030505" flood-opacity="0.48"/>
    </filter>
  </defs>
  <circle cx="256" cy="256" r="216" fill="#111a18"/>
  <circle cx="256" cy="256" r="196" fill="url(#buttonGlow)"/>
  <g filter="url(#softShadow)">
    <path
      d="M284 92l15 46c12 4 23 8 33 14l44-22 40 40-22 44c6 10 10 21 14 33l46 15v56l-46 15c-4 12-8 23-14 33l22 44-40 40-44-22c-10 6-21 10-33 14l-15 46h-56l-15-46c-12-4-23-8-33-14l-44 22-40-40 22-44c-6-10-10-21-14-33l-46-15v-56l46-15c4-12 8-23 14-33l-22-44 40-40 44 22c10-6 21-10 33-14l15-46h56z"
      fill="url(#gearGold)"
      stroke="#fff2bd"
      stroke-linejoin="round"
      stroke-width="12"
    />
    <circle cx="256" cy="290" r="98" fill="#5a3518" opacity="0.34"/>
    <circle cx="256" cy="290" r="78" fill="url(#gearFace)" stroke="#fff0b1" stroke-width="14"/>
    <circle cx="256" cy="290" r="30" fill="#f2c45a" stroke="#8b571f" stroke-width="8"/>
  </g>
</svg>
