<svg xmlns="http://www.w3.org/2000/svg" viewBox="0 0 512 512" role="img" aria-label="Настройки">
  <defs>
    <linearGradient id="gearGold" x1="120" x2="392" y1="76" y2="436" gradientUnits="userSpaceOnUse">
      <stop offset="0" stop-color="#fff0b3"/>
      <stop offset="0.48" stop-color="#e8bb54"/>
      <stop offset="1" stop-color="#a86f29"/>
    </linearGradient>
    <linearGradient id="gearCore" x1="188" x2="324" y1="168" y2="344" gradientUnits="userSpaceOnUse">
      <stop offset="0" stop-color="#253531"/>
      <stop offset="1" stop-color="#101716"/>
    </linearGradient>
    <filter id="gearShadow" x="-20%" y="-20%" width="140%" height="140%">
      <feDropShadow dx="0" dy="10" stdDeviation="10" flood-color="#050708" flood-opacity="0.48"/>
    </filter>
  </defs>
  <rect x="70" y="70" width="372" height="372" rx="56" fill="#101817" opacity="0.3"/>
  <g filter="url(#gearShadow)">
    <path
      d="M278 64l18 53c13 4 25 9 36 15l51-24 41 41-24 51c6 11 11 23 15 36l53 18v58l-53 18c-4 13-9 25-15 36l24 51-41 41-51-24c-11 6-23 11-36 15l-18 53h-58l-18-53c-13-4-25-9-36-15l-51 24-41-41 24-51c-6-11-11-23-15-36l-53-18v-58l53-18c4-13 9-25 15-36l-24-51 41-41 51 24c11-6 23-11 36-15l18-53h58z"
      fill="url(#gearGold)"
      stroke="#fff2ba"
      stroke-width="10"
      stroke-linejoin="round"
    />
    <circle cx="256" cy="256" r="108" fill="#6f4a21" opacity="0.42"/>
    <circle cx="256" cy="256" r="74" fill="url(#gearCore)" stroke="#fff0b0" stroke-width="12"/>
    <circle cx="256" cy="256" r="28" fill="#f2c965"/>
    <path
      d="M256 148v38M256 326v38M148 256h38M326 256h38M180 180l27 27M305 305l27 27M332 180l-27 27M207 305l-27 27"
      fill="none"
      stroke="#fff4c8"
      stroke-linecap="round"
      stroke-width="14"
      opacity="0.45"
    />
  </g>
</svg>
