<svg xmlns="http://www.w3.org/2000/svg" viewBox="0 0 512 512" role="img" aria-label="Настройки">
  <defs>
    <linearGradient id="gearStroke" x1="112" x2="400" y1="94" y2="418" gradientUnits="userSpaceOnUse">
      <stop offset="0" stop-color="#fff0bc"/>
      <stop offset="0.52" stop-color="#dfad4c"/>
      <stop offset="1" stop-color="#926024"/>
    </linearGradient>
    <linearGradient id="gearFill" x1="146" x2="366" y1="128" y2="384" gradientUnits="userSpaceOnUse">
      <stop offset="0" stop-color="#26332f" stop-opacity="0.8"/>
      <stop offset="1" stop-color="#0e1412" stop-opacity="0.9"/>
    </linearGradient>
    <filter id="gearShadow" x="-22%" y="-22%" width="144%" height="144%">
      <feDropShadow dx="0" dy="8" stdDeviation="8" flood-color="#020403" flood-opacity="0.46"/>
    </filter>
  </defs>
  <g filter="url(#gearShadow)" transform="translate(0 -28)">
    <path
      d="M279 88h-46l-12 48c-16 4-31 10-45 18l-42-25-33 33 25 42c-8 14-14 29-18 45l-48 12v46l48 12c4 16 10 31 18 45l-25 42 33 33 42-25c14 8 29 14 45 18l12 48h46l12-48c16-4 31-10 45-18l42 25 33-33-25-42c8-14 14-29 18-45l48-12v-46l-48-12c-4-16-10-31-18-45l25-42-33-33-42 25c-14-8-29-14-45-18L279 88z"
      fill="url(#gearFill)"
      stroke="url(#gearStroke)"
      stroke-linejoin="round"
      stroke-width="20"
    />
    <circle cx="256" cy="284" r="78" fill="none" stroke="#fff0bc" stroke-opacity="0.88" stroke-width="18"/>
    <circle cx="256" cy="284" r="30" fill="#101817" stroke="url(#gearStroke)" stroke-width="16"/>
  </g>
</svg>
